<svg xmlns="http://www.w3.org/2000/svg" xmlns:xlink="http://www.w3.org/1999/xlink" fill="none" version="1.1" width="480" height="64" viewBox="0 0 480 64"><g><path d="M0,2L0,55.1716C0,55.702,0.210714,56.2107,0.585786,56.5858L7.41421,63.4142C7.78929,63.7893,8.29799,64,8.82842,64L478,64C479.105,64,480,63.1046,480,62L480,8.82843C480,8.29799,479.789,7.78929,479.414,7.41421L472.586,0.585786C472.211,0.210714,471.702,0,471.172,0L2,0C0.895431,0,0,0.895431,0,2Z" fill="#FFFFFF" fill-opacity="1"/><path d="M0,2L0,55.1716C0,55.702,0.210714,56.2107,0.585786,56.5858L7.41421,63.4142C7.78929,63.7893,8.29799,64,8.82842,64L478,64C479.105,64,480,63.1046,480,62L480,8.82843C480,8.29799,479.789,7.78929,479.414,7.41421L472.586,0.585786C472.211,0.210714,471.702,0,471.172,0L2,0C0.895431,0,0,0.895431,0,2ZM2,2L2,55.1716L8.82843,62L478,62L478,8.82843L471.172,2L2,2Z" fill-rule="evenodd" fill="#000000" fill-opacity="0.6000000238418579"/></g></svg>