<svg xmlns="http://www.w3.org/2000/svg" xmlns:xlink="http://www.w3.org/1999/xlink" fill="none" version="1.1" width="24" height="24" viewBox="0 0 24 24"><g><g><path d="M1.0745804,3.7612481562499998Q1,3.64047815625,1,3.49853515625Q1,3.44928915625,1.00960736,3.40099015625Q1.0192147,3.35269015625,1.0380602,3.30719315625Q1.0569057,3.26169615625,1.0842652,3.22075015625Q1.111625,3.17980415625,1.146447,3.14498215625Q1.181269,3.11016015625,1.222215,3.08280035625Q1.263161,3.05544085625,1.3086579999999999,3.03659535625Q1.354155,3.01774985625,1.402455,3.00814251625Q1.4507539999999999,2.99853515625,1.5,2.99853515625L22.4999,2.99853515625Q22.6418,2.99853515625,22.7626,3.07311555625Q22.8472,3.12537215625,22.9054,3.20603515625Q22.9636,3.28669715625,22.9865,3.3834841562499998Q23.0094,3.48027215625,22.9935,3.57844915625Q22.9776,3.67662715625,22.9253,3.7612481562499998L12.4254,20.76413515625Q12.3633,20.86473515625,12.2627,20.92683515625Q12.178,20.97913515625,12.0799,20.99503515625Q11.9817,21.01093515625,11.8849,20.98803515625Q11.7881,20.96513515625,11.7075,20.90693515625Q11.6268,20.84873515625,11.5745,20.76413515625L1.0745804,3.7612481562499998ZM8.16655,13.34233515625L2.39642,3.99853515625L21.6035,3.99853515625L15.8334,13.34233515625L8.16655,13.34233515625Z" fill-rule="evenodd" fill="#FFFFFF" fill-opacity="0.4000000059604645"/></g></g></svg>