<svg xmlns="http://www.w3.org/2000/svg" xmlns:xlink="http://www.w3.org/1999/xlink" fill="none" version="1.1" width="24" height="24" viewBox="0 0 24 24"><g><g><rect x="0" y="0" width="24" height="24" rx="0" fill="#D8D8D8" fill-opacity="0"/></g><g><path d="M8.091560000000001,20.5C5.66531,20.5,3.4036299999999997,19.7943,1.5,18.576700000000002C3.11624,18.6813,5.96855,18.430799999999998,7.74268,16.738599999999998C5.07381,16.6161,3.87019,14.5692,3.7132,13.6945C3.93997,13.7819,5.02148,13.8869,5.632,13.642C2.5619199999999998,12.8722,2.0909459999999997,10.177990000000001,2.195608,9.355730000000001C2.77125,9.75812,3.74809,9.89808,4.13185,9.86308C1.271095,7.81617,2.300272,4.73707,2.80613,4.072262C4.859109999999999,6.9165,7.9359,8.51393,11.7423,8.60278C11.6705,8.28802,11.6326,7.96031,11.6326,7.62373C11.6326,5.20819,13.585,3.25,15.9935,3.25C17.2519,3.25,18.3858,3.784566,19.1818,4.63963C20.0227,4.4425799999999995,21.2882,3.981301,21.9069,3.582404C21.5951,4.7020800000000005,20.6242,5.63612,20.0369,5.98231C20.0418,5.99409,20.0321,5.97048,20.0369,5.98231C20.5528,5.90428,21.9486,5.63603,22.5,5.26192C22.2273,5.8909400000000005,21.198,6.9368,20.3533,7.52232C20.5105,14.4536,15.2074,20.5,8.091560000000001,20.5C8.091560000000001,20.5,8.091560000000001,20.5,8.091560000000001,20.5Z" fill="#FFFFFF" fill-opacity="1"/></g></g></svg>